<?xml version="1.0" standalone="no"?>
<!DOCTYPE svg PUBLIC "-//W3C//DTD SVG 20010904//EN" "http://www.w3.org/TR/2001/REC-SVG-20010904/DTD/svg10.dtd">
<!-- Created using Krita: https://krita.org -->
<svg xmlns="http://www.w3.org/2000/svg" 
    xmlns:xlink="http://www.w3.org/1999/xlink"
    xmlns:krita="http://krita.org/namespaces/svg/krita"
    xmlns:sodipodi="http://sodipodi.sourceforge.net/DTD/sodipodi-0.dtd"
    width="460.8pt"
    height="259.2pt"
    viewBox="0 0 460.8 259.2">
<defs>
  <linearGradient id="gradient0" gradientUnits="objectBoundingBox" x1="0.5" y1="0.993310968313812" x2="0.5" y2="0.16220741611851" spreadMethod="pad">
   <stop stop-color="#ffffff" offset="0" stop-opacity="1"/>
   <stop stop-color="#c0becd" offset="1" stop-opacity="1"/>
  </linearGradient>
 </defs>
<path id="shape0" transform="translate(0, 187.44)" fill="url(#gradient0)" fill-rule="evenodd" stroke="#bd6340" stroke-width="0.48" stroke-linecap="square" stroke-linejoin="bevel" d="M0 0C24.39 0 53.64 1.26 78.03 1.26C96.367 2.85602 141.283 29.3809 160.565 28.7548C203.682 30.0203 252.878 28.2792 303.492 28.8246C331.448 25.7855 356.054 5.47004 384.999 1.33557C414.466 1.33436 436.79 1.07658 460.8 1.08L460.8 71.76L0 71.76Z" sodipodi:nodetypes="ccccccccc"/><path id="shape01" transform="translate(230.4, 188.414998200786)" fill="none" stroke="#a9b3b8" stroke-width="2.4" stroke-linecap="square" stroke-linejoin="bevel" d="M230.4 0C230.42 0.03 206.51 0.104998 158.67 0.224994C148.916 -0.379742 129.856 5.90996 115.498 13.4222C95.1321 23.5111 82.5694 27.4853 70.41 27.78L0 27.495" sodipodi:nodetypes="ccccc"/><path id="shape1" transform="matrix(-1 0 0 1 231.6 188.414998200786)" fill="none" stroke="#a9b3b8" stroke-width="2.4" stroke-linecap="square" stroke-linejoin="bevel" d="M230.4 0C230.42 0.03 206.51 0.104998 158.67 0.224994C148.916 -0.379742 129.856 5.90996 115.498 13.4222C95.1321 23.5111 82.5694 27.4853 70.41 27.78L0 27.495" sodipodi:nodetypes="ccccc"/>
</svg>
